<?xml version="1.0" encoding="UTF-8" standalone="no"?>
<svg xmlns="http://www.w3.org/2000/svg" version="1.1" width="512" height="512">
  <g transform="translate(0,448)">
    <g transform="matrix(0.99800965,0,0,0.99800965,0.1055055,-2.036518)">
      <path d="m 256.54485,-440.84091 c -138.2071,0 -250.6386,112.43141 -250.6386,250.6386 0,138.207112 112.4315,250.35856 250.6386,250.35856 138.2071,0 250.35856,-112.151448 250.35856,-250.35856 0,-138.20719 -112.15146,-250.6386 -250.35856,-250.6386 z"
         style="color:#000000;fill:#000000;fill-opacity:1;fill-rule:nonzero;marker:none;visibility:visible;display:inline;overflow:visible;enable-background:accumulate" />
      <path d="m 256.53616,-410.78108 c -121.94187,0 -220.57008,98.62809 -220.57008,220.57003 0,121.941854 98.62821,220.30747 220.57008,220.30747 86.47283,0 154.49575,-36.9921661 190.59612,-109.260948 -58.46055,-11.134087 -137.96685,-4.693712 -227.88298,14.376441 -2.13629,0.856345 -4.64884,0.716097 -6.67656,-0.372685 -2.02771,-1.088783 -5.0478,-4.419462 -5.0478,-14.003756 0,-9.584293 1.16361,-10.670758 2.59282,-12.474768 1.42921,-1.804009 3.67982,-2.929738 5.98054,-2.991394 46.4443,-9.85029 91.86095,-16.03896 133.39239,-18.11825 41.5314,-2.0793 79.20574,-0.24608 110.28502,6.03941 0.17498,-0.006 0.35015,-0.006 0.52514,0 10.52606,-25.756 16.54273,-53.89965 16.54273,-83.50152 0,-121.94194 -98.3656,-220.57003 -220.30746,-220.57003 l 4e-5,0 z"
         style="color:#000000;fill:#ffa500;fill-opacity:1;fill-rule:nonzero;marker:none;visibility:visible;display:inline;overflow:visible;enable-background:accumulate" />
      <path d="m 363.80317,-207.45687 c 0,33.53488 -24.97949,60.7203 -55.79328,60.7203 -30.81378,0 -55.79331,-27.18542 -55.79331,-60.7203 0,-33.5349 24.97953,-60.72031 55.79331,-60.72031 30.81379,0 55.79328,27.18541 55.79328,60.72031 z"
         style="fill:#ffffff" />
      <path d="m 467.85013,-212.31538 c 0,29.39149 -20.48895,53.21798 -45.76332,53.21798 -25.27436,0 -45.76332,-23.82649 -45.76332,-53.21798 0,-29.39149 20.48896,-53.21804 45.76332,-53.21804 25.27437,0 45.76332,23.82655 45.76332,53.21804 z"
         style="fill:#ffffff"/>
      <path d="m 316.30525,-183.79454 c 0,9.97261 -8.32793,18.05695 -18.60095,18.05695 -10.273,0 -18.60092,-8.08434 -18.60092,-18.05695 0,-9.97252 8.32792,-18.05686 18.60092,-18.05686 10.27302,0 18.60095,8.08434 18.60095,18.05686 z"
         style="fill:#000000" />
      <path d="m 421.37793,-193.1727 c 0,8.1655 -7.05731,14.78492 -15.76289,14.78492 -8.70565,0 -15.76292,-6.61942 -15.76292,-14.78492 0,-8.1655 7.05727,-14.78489 15.76292,-14.78489 8.70558,0 15.76289,6.61939 15.76289,14.78489 z"
         style="fill:#000000" />
    </g>
  </g>
</svg>
